<svg width="24" height="24" viewBox="0 0 24 24" fill="none" xmlns="http://www.w3.org/2000/svg">
<g clip-path="url(#clip0)">
<path d="M22.4088 23.2111L20.5847 5.8405C20.5464 5.47686 20.2399 5.20073 19.8743 5.20073H16.4458V4.41906C16.4458 1.98248 14.4633 0 12.0267 0C9.58998 0 7.6075 1.98248 7.6075 4.41906V5.20073H4.17904C3.81338 5.20073 3.50687 5.47686 3.4686 5.8405L1.6445 23.2111C1.62345 23.4124 1.68881 23.6132 1.82413 23.7637C1.95963 23.9141 2.15262 24 2.35495 24H21.6982C21.9007 24 22.0937 23.9141 22.229 23.7637C22.3647 23.6132 22.4299 23.4124 22.4088 23.2111ZM9.03609 4.41906C9.03609 2.7702 10.3777 1.42859 12.0267 1.42859C13.6756 1.42859 15.0172 2.7702 15.0172 4.41906V5.20073H9.03609V4.41906ZM3.14816 22.5714L4.82229 6.62932H7.6075V8.20347C7.6075 8.59788 7.92739 8.91777 8.3218 8.91777C8.7162 8.91777 9.03609 8.59788 9.03609 8.20347V6.62932H15.0172V8.20347C15.0172 8.59788 15.3371 8.91777 15.7315 8.91777C16.1259 8.91777 16.4458 8.59788 16.4458 8.20347V6.62932H19.231L20.9051 22.5714H3.14816Z" fill="#163F53"/>
</g>
<defs>
<clipPath id="clip0">
<rect width="24" height="24" fill="white"/>
</clipPath>
</defs>
</svg>
