<svg width="16" height="16" viewBox="0 0 16 16" fill="none" xmlns="http://www.w3.org/2000/svg">
<g clip-path="url(#clip0)">
<path d="M12.9815 15.4822L8 10.5005L3.01848 15.4822C2.32792 16.1726 1.20839 16.1726 0.51783 15.4822C-0.17261 14.7916 -0.17261 13.6721 0.51783 12.9815L5.49948 8L0.51783 3.01848C-0.17261 2.32792 -0.17261 1.20839 0.51783 0.51783C1.20839 -0.17261 2.32792 -0.17261 3.01848 0.51783L8 5.49948L12.9815 0.51783C13.6721 -0.17261 14.7916 -0.17261 15.4822 0.51783C16.1726 1.20839 16.1726 2.32792 15.4822 3.01848L10.5005 8L15.4822 12.9815C16.1726 13.6721 16.1726 14.7916 15.4822 15.4822C14.7916 16.1726 13.6721 16.1726 12.9815 15.4822V15.4822Z" fill="#E76E54"/>
</g>
<defs>
<clipPath id="clip0">
<rect width="16" height="16" fill="white"/>
</clipPath>
</defs>
</svg>
