<svg width="22" height="22" viewBox="0 0 22 22" fill="none" xmlns="http://www.w3.org/2000/svg">
<path d="M5.15625 11C5.15625 9.91005 5.45656 8.88898 5.97828 8.0147V4.30615H2.26974C0.797844 6.21775 0 8.54747 0 11C0 13.4526 0.797844 15.7823 2.26974 17.6939H5.97828V13.9854C5.45656 13.1111 5.15625 12.09 5.15625 11Z" fill="#FBBD00"/>
<path d="M11 16.844L8.42188 19.4221L11 22.0002C13.4526 22.0002 15.7823 21.2024 17.6939 19.7305V16.0259H13.9893C13.1074 16.5495 12.082 16.844 11 16.844Z" fill="#0F9D58"/>
<path d="M5.97828 13.9854L2.26974 17.6939C2.56115 18.0724 2.87848 18.4348 3.22184 18.7782C5.29946 20.8558 8.0618 22 11 22V16.8438C8.86772 16.8438 6.99888 15.6956 5.97828 13.9854Z" fill="#31AA52"/>
<path d="M22 10.9997C22 10.3305 21.9394 9.66003 21.8199 9.00699L21.7232 8.47852H11V13.6348H16.2186C15.7119 14.6429 14.9327 15.4653 13.9892 16.0255L17.6938 19.7301C18.0723 19.4386 18.4348 19.1213 18.7782 18.778C20.8558 16.7003 22 13.938 22 10.9997Z" fill="#3C79E6"/>
<path d="M15.1322 6.86782L15.5879 7.32355L19.2339 3.67757L18.7782 3.22184C16.7006 1.14421 13.9382 0 11 0L8.42188 2.57812L11 5.15625C12.5609 5.15625 14.0284 5.76409 15.1322 6.86782Z" fill="#CF2D48"/>
<path d="M11 5.15625V0C8.0618 0 5.29946 1.14421 3.22179 3.2218C2.87843 3.56516 2.56111 3.9276 2.26969 4.30611L5.97824 8.01466C6.99888 6.30437 8.86772 5.15625 11 5.15625Z" fill="#EB4132"/>
</svg>
