<svg width="17" height="15" viewBox="0 0 17 15" fill="none" xmlns="http://www.w3.org/2000/svg">
<path d="M8.79999 14.2349C8.5722 14.2349 8.3526 14.1523 8.18146 14.0024C7.5351 13.4373 6.91193 12.9061 6.36212 12.4376L6.35931 12.4352C4.74738 11.0615 3.35541 9.87524 2.3869 8.70667C1.30426 7.40027 0.799988 6.16162 0.799988 4.80847C0.799988 3.49377 1.25079 2.28088 2.06927 1.39307C2.89752 0.494751 4.034 0 5.26971 0C6.1933 0 7.03912 0.291992 7.78363 0.867798C8.15936 1.15845 8.49994 1.51416 8.79999 1.92908C9.10016 1.51416 9.44061 1.15845 9.81647 0.867798C10.561 0.291992 11.4068 0 12.3304 0C13.566 0 14.7026 0.494751 15.5308 1.39307C16.3493 2.28088 16.8 3.49377 16.8 4.80847C16.8 6.16162 16.2958 7.40027 15.2132 8.70654C14.2447 9.87524 12.8528 11.0614 11.2411 12.4349C10.6904 12.9042 10.0662 13.4362 9.4184 14.0027C9.24738 14.1523 9.02765 14.2349 8.79999 14.2349ZM5.26971 0.937256C4.29889 0.937256 3.40704 1.32471 2.75824 2.02832C2.09979 2.74255 1.73712 3.72986 1.73712 4.80847C1.73712 5.94653 2.1601 6.96436 3.10846 8.10864C4.02509 9.21472 5.38849 10.3766 6.9671 11.7219L6.97003 11.7244C7.52191 12.1947 8.14752 12.7279 8.79865 13.2972C9.45367 12.7268 10.0803 12.1927 10.6332 11.7217C12.2117 10.3763 13.575 9.21472 14.4916 8.10864C15.4399 6.96436 15.8629 5.94653 15.8629 4.80847C15.8629 3.72986 15.5002 2.74255 14.8417 2.02832C14.1931 1.32471 13.3011 0.937256 12.3304 0.937256C11.6192 0.937256 10.9662 1.16333 10.3897 1.60913C9.87592 2.00659 9.51801 2.50903 9.30817 2.8606C9.20026 3.04138 9.01031 3.14929 8.79999 3.14929C8.58966 3.14929 8.39972 3.04138 8.29181 2.8606C8.08209 2.50903 7.72418 2.00659 7.21027 1.60913C6.63373 1.16333 5.98077 0.937256 5.26971 0.937256Z" fill="black"/>
</svg>
