<svg width="40" height="40" viewBox="0 0 40 40" fill="none" xmlns="http://www.w3.org/2000/svg">
<g clip-path="url(#clip0)">
<path d="M2.50001 2.72166C-0.643327 5.98666 6.5736e-06 9.455 6.5736e-06 19.9917C6.5736e-06 28.7417 -1.52666 37.5133 6.46334 39.5783C8.95834 40.22 31.065 40.22 33.5567 39.575C36.8833 38.7167 39.59 36.0183 39.96 31.3133C40.0117 30.6567 40.0117 9.33833 39.9583 8.66833C39.565 3.65666 36.48 0.768329 32.415 0.183329C31.4833 0.0483293 31.2967 0.00832928 26.5167 -4.05255e-06C9.56167 0.00832928 5.84501 -0.746671 2.50001 2.72166V2.72166Z" fill="url(#paint0_linear)"/>
<path d="M19.9967 5.23203C13.945 5.23203 8.19835 4.69369 6.00335 10.327C5.09668 12.6537 5.22835 15.6754 5.22835 20.002C5.22835 23.7987 5.10668 27.367 6.00335 29.6754C8.19335 35.312 13.9867 34.772 19.9933 34.772C25.7883 34.772 31.7634 35.3754 33.985 29.6754C34.8934 27.3254 34.76 24.3487 34.76 20.002C34.76 14.232 35.0783 10.507 32.28 7.71036C29.4467 4.87703 25.615 5.23203 19.99 5.23203H19.9967ZM18.6733 7.89369C31.2967 7.87369 32.9033 6.47036 32.0167 25.9654C31.7017 32.8604 26.4517 32.1037 19.9983 32.1037C8.23168 32.1037 7.89335 31.767 7.89335 19.9954C7.89335 8.08703 8.82668 7.90036 18.6733 7.89036V7.89369ZM27.88 10.3454C26.9017 10.3454 26.1083 11.1387 26.1083 12.117C26.1083 13.0954 26.9017 13.8887 27.88 13.8887C28.8583 13.8887 29.6517 13.0954 29.6517 12.117C29.6517 11.1387 28.8583 10.3454 27.88 10.3454V10.3454ZM19.9967 12.417C15.8083 12.417 12.4133 15.8137 12.4133 20.002C12.4133 24.1904 15.8083 27.5854 19.9967 27.5854C24.185 27.5854 27.5783 24.1904 27.5783 20.002C27.5783 15.8137 24.185 12.417 19.9967 12.417V12.417ZM19.9967 15.0787C26.505 15.0787 26.5133 24.9254 19.9967 24.9254C13.49 24.9254 13.48 15.0787 19.9967 15.0787Z" fill="white"/>
</g>
<defs>
<linearGradient id="paint0_linear" x1="2.57671" y1="37.4452" x2="39.7525" y2="5.26996" gradientUnits="userSpaceOnUse">
<stop stop-color="#FFDD55"/>
<stop offset="0.5" stop-color="#FF543E"/>
<stop offset="1" stop-color="#C837AB"/>
</linearGradient>
<clipPath id="clip0">
<rect width="40" height="40" fill="white"/>
</clipPath>
</defs>
</svg>
